<?xml version="1.0" encoding="utf-8"?>
<svg xmlns="http://www.w3.org/2000/svg" viewBox="0 0 500 500" xmlns:bx="https://boxy-svg.com" width="500px" height="500px"><defs><bx:export><bx:file format="svg" path="Untitled 2.svg"/><bx:file format="svg" href="#object-1" path="Untitled 3.svg"/></bx:export></defs><g transform="matrix(1, 0, 0, 1, 0.000076, 19.643524)" id="object-1"><g transform="matrix(1.535573, 0, 0, 1.535573, -170.154053, -65.23455)" style=""><path style="stroke: rgb(0, 0, 0); fill: rgb(75, 124, 255); stroke-miterlimit: 1; stroke-opacity: 0;" transform="matrix(-1.438017, -1.438017, 1.460135, -1.460135, 528.490784, 1068.939941)" d="M 376.614 198.6 L 385.386 198.6 L 387.795 209.924 A 35.728 35.728 0 0 1 394.247 211.819 L 402.396 203.595 L 409.776 208.337 L 405.68 219.166 A 35.728 35.728 0 0 1 410.083 224.248 L 421.385 221.735 L 425.029 229.714 L 415.729 236.61 A 35.728 35.728 0 0 1 416.686 243.266 L 427.552 247.262 L 426.304 255.945 L 414.752 256.718 A 35.728 35.728 0 0 1 411.958 262.835 L 418.939 272.071 L 413.195 278.7 L 403.059 273.105 A 35.728 35.728 0 0 1 397.402 276.741 L 398.281 288.285 L 389.864 290.756 L 384.362 280.569 A 35.728 35.728 0 0 1 377.638 280.569 L 372.136 290.756 L 363.719 288.285 L 364.598 276.741 A 35.728 35.728 0 0 1 358.941 273.105 L 348.805 278.7 L 343.061 272.071 L 350.042 262.835 A 35.728 35.728 0 0 1 347.248 256.718 L 335.696 255.945 L 334.448 247.262 L 345.314 243.266 A 35.728 35.728 0 0 1 346.271 236.61 L 336.971 229.714 L 340.615 221.735 L 351.917 224.248 A 35.728 35.728 0 0 1 356.32 219.166 L 352.224 208.337 L 359.604 203.595 L 367.753 211.819 A 35.728 35.728 0 0 1 374.205 209.924 Z M 381 228.76 A 16.24 16.24 0 0 0 381 261.24 A 16.24 16.24 0 0 0 381 228.76" bx:shape="cog 381 245 16.24 35.728 46.4 0.34 11 1@61d89988"/><path style="stroke: rgb(0, 0, 0); fill: rgb(255, 171, 83); stroke-opacity: 0;" transform="matrix(-1.156311, -1.156311, 1.156311, -1.156311, 346.99649, 964.669495)" d="M 375.631 198.6 L 386.369 198.6 L 389.28 210.244 A 35.728 35.728 0 0 1 396.998 213.053 L 406.713 206.004 L 414.938 212.906 L 409.683 223.698 A 35.728 35.728 0 0 1 413.79 230.811 L 425.763 231.655 L 427.628 242.23 L 416.665 247.119 A 35.728 35.728 0 0 1 415.239 255.207 L 423.868 263.551 L 418.5 272.85 L 406.959 269.548 A 35.728 35.728 0 0 1 400.668 274.828 L 401.915 286.766 L 391.825 290.438 L 385.107 280.492 A 35.728 35.728 0 0 1 376.893 280.492 L 370.175 290.438 L 360.085 286.766 L 361.332 274.828 A 35.728 35.728 0 0 1 355.041 269.548 L 343.5 272.85 L 338.132 263.551 L 346.761 255.207 A 35.728 35.728 0 0 1 345.335 247.119 L 334.372 242.23 L 336.237 231.655 L 348.21 230.811 A 35.728 35.728 0 0 1 352.317 223.698 L 347.062 212.906 L 355.287 206.004 L 365.002 213.053 A 35.728 35.728 0 0 1 372.72 210.244 Z M 381 228.76 A 16.24 16.24 0 0 0 381 261.24 A 16.24 16.24 0 0 0 381 228.76" bx:shape="cog 381 245 16.24 35.728 46.4 0.34 9 1@16881fc0"/></g></g></svg>